{
  "accessors": [
    {
      "bufferView": 2,
      "componentType": 5126,
      "count": 65532,
      "max": [
        0.55954885482788086,
        0.70040947198867798,
        0.89829772710800171
      ],
      "min": [
        -0.63770580291748047,
        -0.080180570483207703,
        -0.8627622127532959
      ],
      "type": "VEC3"
    },
    {
      "bufferView": 2,
      "byteOffset": 786384,
      "componentType": 5126,
      "count": 65532,
      "max": [
        0.99928945302963257,
        0.99999648332595825,
        0.99983787536621094
      ],
      "min": [
        -0.99979317188262939,
        -0.99993199110031128,
        -0.99993729591369629
      ],
      "type": "VEC3"
    },
    {
      "bufferView": 3,
      "componentType": 5126,
      "count": 65532,
      "max": [
        0.99999743700027466,
        0.99990254640579224,
        0.99996268749237061,
        1
      ],
      "min": [
        -0.9999968409538269,
        -0.99998635053634644,
        -0.99976342916488647,
        -1
      ],
      "type": "VEC4"
    },
    {
      "bufferView": 3,
      "byteOffset": 1048512,
      "componentType": 5126,
      "count": 65532,
      "max": [
        1,
        1,
        1,
        1
      ],
      "min": [
        1,
        1,
        1,
        1
      ],
      "type": "VEC4"
    },
    {
      "bufferView": 1,
      "componentType": 5126,
      "count": 65532,
      "max": [
        0.93623000383377075,
        0.93629997968673706
      ],
      "min": [
        0.0019499999471008778,
        0.0019499999471008778
      ],
      "type": "VEC2"
    },
    {
      "bufferView": 0,
      "componentType": 5125,
      "count": 343056,
      "max": [
        65531
      ],
      "min": [
        0
      ],
      "type": "SCALAR"
    },
    {
      "bufferView": 2,
      "byteOffset": 1572768,
      "componentType": 5126,
      "count": 65532,
      "max": [
        0.37530750036239624,
        0.70040947198867798,
        0.8995661735534668
      ],
      "min": [
        -0.69137078523635864,
        -0.10702501237392426,
        -0.83522069454193115
      ],
      "type": "VEC3"
    },
    {
      "bufferView": 2,
      "byteOffset": 2359152,
      "componentType": 5126,
      "count": 65532,
      "max": [
        0.9993322491645813,
        0.99999988079071045,
        0.99998611211776733
      ],
      "min": [
        -0.99999481439590454,
        -0.99999481439590454,
        -0.99998533725738525
      ],
      "type": "VEC3"
    },
    {
      "bufferView": 3,
      "byteOffset": 2097024,
      "componentType": 5126,
      "count": 65532,
      "max": [
        0.99999505281448364,
        0.99949914216995239,
        0.99996268749237061,
        1
      ],
      "min": [
        -0.99999964237213135,
        -0.99979013204574585,
        -0.99957293272018433,
        -1
      ],
      "type": "VEC4"
    },
    {
      "bufferView": 3,
      "byteOffset": 3145536,
      "componentType": 5126,
      "count": 65532,
      "max": [
        1,
        1,
        1,
        1
      ],
      "min": [
        1,
        1,
        1,
        1
      ],
      "type": "VEC4"
    },
    {
      "bufferView": 1,
      "byteOffset": 524256,
      "componentType": 5126,
      "count": 65532,
      "max": [
        0.99804002046585083,
        0.99775999784469604
      ],
      "min": [
        0.048769999295473099,
        0.0019900000188499689
      ],
      "type": "VEC2"
    },
    {
      "bufferView": 0,
      "byteOffset": 1372224,
      "componentType": 5125,
      "count": 355347,
      "max": [
        65531
      ],
      "min": [
        0
      ],
      "type": "SCALAR"
    },
    {
      "bufferView": 2,
      "byteOffset": 3145536,
      "componentType": 5126,
      "count": 65532,
      "max": [
        0.69134849309921265,
        0.69955706596374512,
        0.89702826738357544
      ],
      "min": [
        -0.59992027282714844,
        -0.10578075796365738,
        -0.78611719608306885
      ],
      "type": "VEC3"
    },
    {
      "bufferView": 2,
      "byteOffset": 3931920,
      "componentType": 5126,
      "count": 65532,
      "max": [
        0.99993312358856201,
        0.99994105100631714,
        0.99999529123306274
      ],
      "min": [
        -0.9993438720703125,
        -0.99999409914016724,
        -0.99995517730712891
      ],
      "type": "VEC3"
    },
    {
      "bufferView": 3,
      "byteOffset": 4194048,
      "componentType": 5126,
      "count": 65532,
      "max": [
        0.99999648332595825,
        0.95932209491729736,
        0.99986028671264648,
        1
      ],
      "min": [
        -1,
        -0.99995744228363037,
        -0.98992329835891724,
        1
      ],
      "type": "VEC4"
    },
    {
      "bufferView": 3,
      "byteOffset": 5242560,
      "componentType": 5126,
      "count": 65532,
      "max": [
        1,
        1,
        1,
        1
      ],
      "min": [
        1,
        1,
        1,
        1
      ],
      "type": "VEC4"
    },
    {
      "bufferView": 1,
      "byteOffset": 1048512,
      "componentType": 5126,
      "count": 65532,
      "max": [
        0.98233997821807861,
        0.99629998207092285
      ],
      "min": [
        0.058400001376867294,
        0.0042400001548230648
      ],
      "type": "VEC2"
    },
    {
      "bufferView": 0,
      "byteOffset": 2793612,
      "componentType": 5125,
      "count": 330564,
      "max": [
        65531
      ],
      "min": [
        0
      ],
      "type": "SCALAR"
    },
    {
      "bufferView": 2,
      "byteOffset": 4718304,
      "componentType": 5126,
      "count": 59602,
      "max": [
        0.69113647937774658,
        0.69936960935592651,
        0.89702737331390381
      ],
      "min": [
        -9.9999999392252903e-09,
        -0.10549160093069077,
        -0.84354633092880249
      ],
      "type": "VEC3"
    },
    {
      "bufferView": 2,
      "byteOffset": 5433528,
      "componentType": 5126,
      "count": 59602,
      "max": [
        0.99992740154266357,
        0.9999966025352478,
        0.99990588426589966
      ],
      "min": [
        -0.99822604656219482,
        -0.99999207258224487,
        -0.99996310472488403
      ],
      "type": "VEC3"
    },
    {
      "bufferView": 3,
      "byteOffset": 6291072,
      "componentType": 5126,
      "count": 59602,
      "max": [
        0.99999827146530151,
        0.99555128812789917,
        0.99992167949676514,
        1
      ],
      "min": [
        -1,
        -0.99990713596343994,
        -0.98992329835891724,
        1
      ],
      "type": "VEC4"
    },
    {
      "bufferView": 3,
      "byteOffset": 7244704,
      "componentType": 5126,
      "count": 59602,
      "max": [
        1,
        1,
        1,
        1
      ],
      "min": [
        1,
        1,
        1,
        1
      ],
      "type": "VEC4"
    },
    {
      "bufferView": 1,
      "byteOffset": 1572768,
      "componentType": 5126,
      "count": 59602,
      "max": [
        0.99244999885559082,
        0.99063998460769653
      ],
      "min": [
        0.011939999647438526,
        0.058230001479387283
      ],
      "type": "VEC2"
    },
    {
      "bufferView": 0,
      "byteOffset": 4115868,
      "componentType": 5125,
      "count": 300249,
      "max": [
        59601
      ],
      "min": [
        0
      ],
      "type": "SCALAR"
    }
  ],
  "asset": {
    "extras": {
      "author": "Romain Vaysse (https://sketchfab.com/redshell)",
      "license": "CC-BY-NC-4.0 (http://creativecommons.org/licenses/by-nc/4.0/)",
      "source": "https://sketchfab.com/models/9a3972e41f4646129245c6acd5a19b71",
      "title": "Japanese Mask"
    },
    "generator": "Sketchfab-3.22.12",
    "version": "2.0"
  },
  "bufferViews": [
    {
      "buffer": 0,
      "byteLength": 5316864,
      "byteOffset": 0,
      "name": "floatBufferViews",
      "target": 34963
    },
    {
      "buffer": 0,
      "byteLength": 2049584,
      "byteOffset": 5316864,
      "byteStride": 8,
      "name": "floatBufferViews",
      "target": 34962
    },
    {
      "buffer": 0,
      "byteLength": 6148752,
      "byteOffset": 7366448,
      "byteStride": 12,
      "name": "floatBufferViews",
      "target": 34962
    },
    {
      "buffer": 0,
      "byteLength": 8198336,
      "byteOffset": 13515200,
      "byteStride": 16,
      "name": "floatBufferViews",
      "target": 34962
    }
  ],
  "buffers": [
    {
      "byteLength": 21713536,
      "uri": "scene.bin"
    }
  ],
  "images": [
    {
      "uri": "textures/defaultMat_baseColor.png"
    },
    {
      "uri": "textures/defaultMat_normal.png"
    },
    {
      "uri": "textures/defaultMat_metallicRoughness.png"
    }
  ],
  "materials": [
    {
      "doubleSided": true,
      "name": "defaultMat",
      "normalTexture": {
        "index": 1,
        "scale": 1,
        "texCoord": 0
      },
      "pbrMetallicRoughness": {
        "baseColorFactor": [
          1,
          1,
          1,
          1
        ],
        "baseColorTexture": {
          "index": 0,
          "texCoord": 0
        },
        "metallicFactor": 1,
        "metallicRoughnessTexture": {
          "index": 2,
          "texCoord": 0
        },
        "roughnessFactor": 1
      }
    }
  ],
  "meshes": [
    {
      "primitives": [
        {
          "attributes": {
            "COLOR_0": 3,
            "NORMAL": 1,
            "POSITION": 0,
            "TANGENT": 2,
            "TEXCOORD_0": 4
          },
          "indices": 5,
          "material": 0,
          "mode": 4
        }
      ]
    },
    {
      "primitives": [
        {
          "attributes": {
            "COLOR_0": 9,
            "NORMAL": 7,
            "POSITION": 6,
            "TANGENT": 8,
            "TEXCOORD_0": 10
          },
          "indices": 11,
          "material": 0,
          "mode": 4
        }
      ]
    },
    {
      "primitives": [
        {
          "attributes": {
            "COLOR_0": 15,
            "NORMAL": 13,
            "POSITION": 12,
            "TANGENT": 14,
            "TEXCOORD_0": 16
          },
          "indices": 17,
          "material": 0,
          "mode": 4
        }
      ]
    },
    {
      "primitives": [
        {
          "attributes": {
            "COLOR_0": 21,
            "NORMAL": 19,
            "POSITION": 18,
            "TANGENT": 20,
            "TEXCOORD_0": 22
          },
          "indices": 23,
          "material": 0,
          "mode": 4
        }
      ]
    }
  ],
  "nodes": [
    {
      "children": [
        1
      ],
      "name": "RootNode (gltf orientation matrix)",
      "rotation": [
        -0.70710678118654746,
        -0,
        -0,
        0.70710678118654757
      ]
    },
    {
      "children": [
        2,
        3,
        4,
        5
      ],
      "name": "RootNode (model correction matrix)"
    },
    {
      "mesh": 0,
      "name": ""
    },
    {
      "mesh": 1,
      "name": ""
    },
    {
      "mesh": 2,
      "name": ""
    },
    {
      "mesh": 3,
      "name": ""
    }
  ],
  "samplers": [
    {
      "magFilter": 9729,
      "minFilter": 9987,
      "wrapS": 10497,
      "wrapT": 10497
    }
  ],
  "scene": 0,
  "scenes": [
    {
      "name": "OSG_Scene",
      "nodes": [
        0
      ]
    }
  ],
  "textures": [
    {
      "sampler": 0,
      "source": 0
    },
    {
      "sampler": 0,
      "source": 1
    },
    {
      "sampler": 0,
      "source": 2
    }
  ]
}

